<svg xmlns="http://www.w3.org/2000/svg" viewBox="0 0 128 128">
  <path fill="#F0DB4F" d="M95.3 29.6c-2.6 4.4-5.3 10.4-6.4 13.4-2.5 7-3.9 10.2-5.2 12.6-.9 1.8-1.6 3.2-2.5 4.2-.9 1.2-1.4 1.7-2.3 2.3-1.4.9-2.6.8-3.8-.1-.9-.6-1.4-1.7-1.5-3.1-.1-1.4-.2-2.9-.2-4.4 0-1.5.1-3 .1-4.4 0-2-.1-3.9-.4-5.8-.2-1.7-.5-3.2-1.3-4.5-.8-1.3-1.9-2.1-3.3-2.3-1.4-.2-2.7 0-3.9 1-1.1 1-1.9 2.4-2.3 4.2-.5 1.8-.8 4.1-.8 6.7 0 3.5.5 7.4 1.5 11.6.5 1.9 1.1 3.7 1.8 5.3 1 2.1 2.2 3.8 3.8 5.1 1.8 1.5 4 2.2 6.5 2.2 2.5 0 4.7-.7 6.6-2.2 1.8-1.5 3-3.2 3.7-5.1.8-2 1.4-4.6 1.9-7.7.4-2.5.6-5.6.6-9.2 0-1.6 0-3.2-.1-4.8-.1-1.6-.3-3.1-.7-4.4-.5-1.3-1.2-2.4-2.1-3.1-.9-.7-2-.9-3.2-.6-1.2.4-2 .9-2.4 1.7-.5.7-.8 1.6-.8 2.6 0 1 .1 1.9.2 2.7.4 2.1 1 3.7 1.9 4.7 1.4 1.6 3.3 2.3 5.7 2.3 1.8 0 3.4-.5 4.8-1.5 1.3-1 2.2-2.4 2.8-4.2.7-1.8 1.1-4.1 1.4-6.7l.1-.7c.1-1.8.1-3.4 0-4.7-.1-1.1-.3-2.1-.5-3l-.4-.5c-.3-.4-.6-.8-1-1.1-.4-.3-.9-.5-1.5-.6-.5-.1-1.1 0-1.7.1-.6.2-1 .5-1.4 1l-.3.4c-.7 1.1-1.1 2.1-1.1 2.8 0 .5-.4 1-1.3 1.7-1.1.8-2.1 1.1-3.1 1-1-.1-1.8-.5-2.4-1.2-.7-.8-1-1.8-1-3.2 0-1.3.3-2.8.9-4.5.8-2.2 1.9-4 3.4-5.3 1.5-1.3 3.4-2 5.6-2 1.7 0 3.1.5 4.3 1.4 1.1.9 1.9 2.1 2.4 3.6.5 1.5.7 3.4.7 5.7v.2c.1 3.2.1 5.5 0 7.1z"/>
  <path fill="#323232" d="M15.4 103.5h25.3V22.9H15.4v80.6zM37 20.2c2.3 0 4.3.8 5.9 2.5 1.6 1.7 2.5 3.7 2.5 6 0 2.4-.8 4.4-2.5 6-1.6 1.6-3.5 2.5-5.9 2.5s-4.3-.8-5.9-2.5c-1.6-1.7-2.5-3.7-2.5-6 0-2.4.8-4.4 2.5-6 1.6-1.6 3.6-2.5 5.9-2.5z"/>
</svg>