<svg xmlns="http://www.w3.org/2000/svg" viewBox="0 0 128 128">
  <path fill="#44764D" d="M113.3 19.5c-2.1 0-3.9 1.7-3.9 3.9v8.8c0 1.2-.3 2.4-.9 3.4l-11.2 19.4c-1.2 2.1-.4 4.8 1.7 6 1.1.6 2.4.6 3.5 0l14.8-8.6c2.1-1.2 2.7-4 .9-6.1l-3.9-6.7c.9-.5 1.5-1.4 1.5-2.5v-8.8c0-2.2-1.8-3.9-3.9-3.9-.5 0-1 .1-1.5.2-1.5.5-3.1.6-4.7.2-.7-.2-1.4-.1-2 .1-.4.2-.9.2-1.4.1-.8-.2-1.6-.3-2.5-.2-.2 0-.4 0-.6.1-.8.1-1.6.2-2.5.2h-.2c-.8-.1-1.7-.1-2.5-.1-.5 0-1 .1-1.4.2-.9.3-1.8.4-2.8.4-.2 0-.4 0-.7-.1-.9-.1-1.7-.2-2.5-.5-.5-.1-1-.2-1.5-.2-.4 0-.9-.1-1.4-.1-.7 0-1.5 0-2.2.1h-.1c-.2 0-.4 0-.6-.1h-.2c-.8-.1-1.6-.1-2.4-.1-.4 0-.9 0-1.3.1-.6.1-1.1.1-1.7.3h-.2c-.7 0-1.4.1-2.1.2-.2 0-.4 0-.6.1-.7.1-1.3.3-1.9.5-.2.1-.4.1-.6.2-.5.2-1 .3-1.4.5-.2.1-.5.2-.7.4-.4.2-.8.5-1.2.7-.2.1-.3.2-.5.4-.4.3-.8.5-1.2.8-.1.1-.2.2-.3.3-.5.4-.9.8-1.3 1.2-.1.1-.2.2-.2.4-.3.3-.5.6-.8.9-.1.1-.2.2-.2.4-.3.4-.5.7-.7 1.1-.1.1-.1.2-.2.4-.2.4-.4.7-.6 1.1 0 .1-.1.2-.1.4-.2.4-.3.8-.4 1.2 0 .1 0 .2-.1.3-.1.5-.2.9-.2 1.4v.1c-.1.5-.1 1.1-.1 1.6v21.4c0 .6.1 1.1.2 1.6v.3c.1.5.1 1 .3 1.5v.1c.1.4.3.8.5 1.1 0 .1.1.1.1.2.2.4.5.7.8 1 .1.1.1.1.2.2.4.3.8.6 1.2.8.1.1.2.1.4.2.5.2.9.5 1.4.6.1 0 .2.1.4.1.5.1 1.1.2 1.6.3h.3c.4.1.9.1 1.3.1h26.9c.5 0 1-.1 1.4-.2h.2c.5-.1.9-.3 1.3-.5.1 0 .2-.1.4-.2.4-.2.7-.4 1-.6.2-.1.3-.2.5-.4.3-.2.5-.5.8-.7.1-.1.2-.2.3-.4.3-.3.5-.6.7-.9.1-.1.1-.2.2-.4.2-.3.4-.7.5-1 .1-.1.1-.2.1-.4.1-.4.2-.7.3-1.1v-.1c.1-.4.1-.8.1-1.2V23.4c0-.6-.1-1.1-.2-1.6v-.2c-.1-.5-.1-.9-.3-1.4v-.1c-.1-.4-.3-.8-.5-1.1 0-.1-.1-.1-.1-.2-.2-.4-.5-.7-.8-1-.1-.1-.1-.1-.2-.2-.4-.3-.8-.6-1.2-.8-.1-.1-.2-.1-.4-.2-.5-.2-.9-.5-1.4-.6-.1 0-.2-.1-.4-.1-.5-.1-1.1-.2-1.6-.3h-.2c-.5 0-.9-.1-1.4-.1H113.3z"/>
  <path fill="#6C8C64" d="M17.2 33.4c0-1.2-.3-2.4-.9-3.4L5.1 10.6c-1.2-2.1-3.9-2.7-6-1.5-1.1.6-2.4.6-3.5 0L.5 18.7c-2.1 1.2-2.7 4-.9 6.1l11.2 19.4c1.2 2.1 3.9 2.7 6 1.5 1.1-.6 2.4-.6 3.5 0l8.6-5c2.1-1.2 2.7-4 .9-6.1l-4.9-8.5c.9-.5 1.5-1.4 1.5-2.5v-8.8c-.2-2.2-2-3.9-4.1-3.9-.5 0-1 .1-1.5.2-1.5.5-3.1.6-4.7.2-.7-.2-1.4-.1-2 .1-.4.2-.9.2-1.4.1-.8-.2-1.6-.3-2.5-.2-.2 0-.4 0-.6.1-.8.1-1.6.2-2.5.2h-.2c-.8-.1-1.7-.1-2.5-.1-.5 0-1 .1-1.4.2-.9.3-1.8.4-2.8.4-.2 0-.4 0-.7-.1-.9-.1-1.7-.2-2.5-.5-.5-.1-1-.2-1.5-.2-.4 0-.9-.1-1.4-.1-.7 0-1.5 0-2.2.1h-.1c-.2 0-.4 0-.6-.1h-.2c-.8-.1-1.6-.1-2.4-.1-.4 0-.9 0-1.3.1-.6.1-1.1.1-1.7.3h-.2c-.7 0-1.4.1-2.1.2-.2 0-.4 0-.6.1-.7.1-1.3.3-1.9.5-.2.1-.4.1-.6.2-.5.2-1 .3-1.4.5-.2.1-.5.2-.7.4-.4.2-.8.5-1.2.7-.2.1-.3.2-.5.4-.4.3-.8.5-1.2.8-.1.1-.2.2-.3.3-.5.4-.9.8-1.3 1.2-.1.1-.2.2-.2.4-.3.3-.5.6-.8.9-.1.1-.2.2-.2.4-.3.4-.5.7-.7 1.1-.1.1-.1.2-.2.4-.2.4-.4.7-.6 1.1 0 .1-.1.2-.1.4-.2.4-.3.8-.4 1.2 0 .1 0 .2-.1.3-.1.5-.2.9-.2 1.4v.1c-.1.5-.1 1.1-.1 1.6v21.4c0 .6.1 1.1.2 1.6v.3c.1.5.1 1 .3 1.5v.1c.1.4.3.8.5 1.1 0 .1.1.1.1.2.2.4.5.7.8 1 .1.1.1.1.2.2.4.3.8.6 1.2.8.1.1.2.1.4.2.5.2.9.5 1.4.6.1 0 .2.1.4.1.5.1 1.1.2 1.6.3h.3c.4.1.9.1 1.3.1H40c.5 0 1-.1 1.4-.2h.2c.5-.1.9-.3 1.3-.5.1 0 .2-.1.4-.2.4-.2.7-.4 1-.6.2-.1.3-.2.5-.4.3-.2.5-.5.8-.7.1-.1.2-.2.3-.4.3-.3.5-.6.7-.9.1-.1.1-.2.2-.4.2-.3.4-.7.5-1 .1-.1.1-.2.1-.4.1-.4.2-.7.3-1.1v-.1c.1-.4.1-.8.1-1.2V23.4c0-.6-.1-1.1-.2-1.6v-.2c-.1-.5-.1-.9-.3-1.4v-.1c-.1-.4-.3-.8-.5-1.1 0-.1-.1-.1-.1-.2-.2-.4-.5-.7-.8-1-.1-.1-.1-.1-.2-.2-.4-.3-.8-.6-1.2-.8-.1-.1-.2-.1-.4-.2-.5-.2-.9-.5-1.4-.6-.1 0-.2-.1-.4-.1-.5-.1-1.1-.2-1.6-.3H23.3c-.5 0-1-.1-1.4-.2h-.2c-.5-.1-1-.3-1.4-.5-.1 0-.2-.1-.4-.2-.4-.2-.8-.4-1.2-.7-.1-.1-.2-.1-.4-.2-.4-.2-.7-.5-1-.8-.1-.1-.2-.2-.3-.4-.3-.3-.6-.6-.8-1-.1-.1-.1-.2-.2-.4-.2-.3-.4-.7-.5-1-.1-.1-.1-.2-.1-.4-.1-.4-.2-.8-.3-1.2v-.2c-.1-.4-.1-.8-.1-1.2V23.2z"/>
</svg>