<svg xmlns="http://www.w3.org/2000/svg" viewBox="0 0 128 128">
  <path fill="#83CD29" d="M116.6 87.5c-.2-.8-.9-1.4-1.8-1.4h-4.5c-.7 0-1.2.3-1.5.8l-6.3 10.8-6.2-10.9c-.3-.5-.8-.8-1.5-.8h-4.4c-.9 0-1.6.6-1.8 1.4-.9 4.2-3.5 7.9-7.2 10.1-.5.3-.7.9-.4 1.4l9.5 15.8c.3.5.8.8 1.3.8.3 0 .5-.1.7-.2l17.9-10.3c.9-.5 1.1-1.6.7-2.5-1.3-3.1-3.4-5.9-6.1-8.1z"/>
  <path fill="#83CD29" d="M111.5 63.4c-5.1-5-13.2-4.9-21.6-2-1.8-3.6-4.3-6.8-7.4-9.4-2.8-2.4-6.2-4-10-4.6-1.1-.2-2.2.5-2.4 1.6-.2 1.1.5 2.2 1.6 2.4 1.4.2 2.7.6 3.9 1.2-1.5.8-2.9 1.9-4 3.2-.5.5-.5 1.3 0 1.8.5.5 1.3.5 1.8 0 .4-.4.8-.9 1.2-1.4 3.7 2.5 6.3 6.3 7.5 10.8-3.4 1.3-6.4 3.3-8.9 6-.8.9-.8 2.3 0 3.2.4.4 1 .7 1.5.7.5 0 1.1-.2 1.5-.5 2.3-2.5 5.3-4.2 8.5-5.1l-2.6 4.5c-.5.9-.3 2 .4 2.6.4.3 1 .5 1.5.5.5 0 1-.2 1.4-.5l7.8-13.5c.2-.5.3-1.1.2-1.6l5.1 8.9c.3.5.8.8 1.3.8.3 0 .5-.1.7-.2l17.9-10.3c.9-.5 1.1-1.6.7-2.5-.5-1.4-1.1-2.7-1.9-3.9z"/>
  <path fill="#333" d="M21.9 61.8c1.1 0 2-.9 2-2s-.9-2-2-2-2 .9-2 2 .9 2 2 2z"/>
</svg>